<svg xmlns="http://www.w3.org/2000/svg" width="196" height="24" fill="none" xmlns:v="https://vecta.io/nano"><path fill-rule="evenodd" d="M92.972 21.384c1.44 0 2.7-.238 3.78-.714s1.922-1.166 2.526-2.07.906-1.988.906-3.252c0-.864-.142-1.608-.426-2.232s-.694-1.17-1.23-1.638-1.18-.894-1.932-1.278l-2.52-1.164-1.188-.498c-.36-.156-.668-.32-.924-.492a1.92 1.92 0 0 1-.594-.612c-.14-.236-.21-.522-.21-.858a2.02 2.02 0 0 1 .318-1.11c.212-.332.516-.598.912-.798s.878-.3 1.446-.3c.504 0 1.002.072 1.494.216s.956.334 1.392.57.826.502 1.17.798l1.62-3.048c-.432-.368-.96-.708-1.584-1.02a10.6 10.6 0 0 0-2.016-.756 8.35 8.35 0 0 0-2.16-.288c-.96 0-1.83.16-2.61.48s-1.452.752-2.016 1.296a5.78 5.78 0 0 0-1.302 1.86 5.4 5.4 0 0 0-.456 2.184c0 .64.11 1.218.33 1.734a4.82 4.82 0 0 0 .894 1.386 6.46 6.46 0 0 0 1.29 1.074c.484.308.994.582 1.53.822l1.926.858a9.59 9.59 0 0 1 1.428.792c.388.268.682.568.882.9s.3.734.3 1.206c0 .52-.124.954-.372 1.302s-.586.61-1.014.786-.922.264-1.482.264c-.6 0-1.166-.086-1.698-.258a7.87 7.87 0 0 1-1.482-.648c-.456-.26-.868-.534-1.236-.822l-.948-.78-1.992 3.216a10.88 10.88 0 0 0 1.044.864 10.67 10.67 0 0 0 1.578.954 10.65 10.65 0 0 0 2.082.768c.776.204 1.624.306 2.544.306zM48.136 21c1.408 0 2.718-.25 3.93-.75a9.75 9.75 0 0 0 3.18-2.1c.908-.9 1.614-1.948 2.118-3.144s.756-2.494.756-3.894c0-1.392-.254-2.688-.762-3.888s-1.216-2.252-2.124-3.156-1.966-1.608-3.174-2.112-2.516-.756-3.924-.756H42.7V21h5.436zm-.432-3.48h-1.116V4.68h1.116c.896 0 1.724.16 2.484.48s1.42.77 1.98 1.35a6.24 6.24 0 0 1 1.308 2.04c.312.78.468 1.63.468 2.55 0 .928-.156 1.782-.468 2.562a6.17 6.17 0 0 1-1.308 2.034 5.95 5.95 0 0 1-1.98 1.344c-.76.32-1.588.48-2.484.48zm30.356.072V21H67.044V1.2H78.06v3.408h-7.128v4.764h6.84v3.408h-6.84v4.812h7.128zM109.168 1.2h3.888V21h-3.888V1.2zm22.58 20.184a9.82 9.82 0 0 0 3.384-.594c1.088-.396 2.064-.956 2.928-1.68a8.04 8.04 0 0 0 2.046-2.58c.5-.996.75-2.098.75-3.306v-3H131.7v3.012h5.196v.3a3.62 3.62 0 0 1-.408 1.704c-.272.52-.64.972-1.104 1.356s-.994.682-1.59.894a5.49 5.49 0 0 1-1.854.318c-.8 0-1.546-.164-2.238-.492s-1.296-.796-1.812-1.404-.918-1.332-1.206-2.172-.432-1.776-.432-2.808a8.6 8.6 0 0 1 .384-2.622c.256-.804.632-1.506 1.128-2.106s1.106-1.066 1.83-1.398 1.558-.498 2.502-.498c.96 0 1.934.178 2.922.534s1.83.858 2.526 1.506l1.824-3.012c-.648-.536-1.376-.99-2.184-1.362a12.34 12.34 0 0 0-2.526-.846 12.16 12.16 0 0 0-2.61-.288c-1.528 0-2.908.27-4.14.81s-2.284 1.284-3.156 2.232-1.54 2.04-2.004 3.276-.696 2.55-.696 3.942c0 1.456.248 2.808.744 4.056s1.184 2.338 2.064 3.27a9.46 9.46 0 0 0 3.084 2.178c1.176.52 2.444.78 3.804.78zm21.92-13.704V21h-3.888V1.2h3.888l8.532 13.32V1.2h3.888V21H162.2l-8.532-13.32zm31.364 13.704a9.6 9.6 0 0 0 3.888-.792c1.208-.528 2.268-1.262 3.18-2.202a10.35 10.35 0 0 0 2.142-3.276 10.34 10.34 0 0 0 .774-4.002 10.34 10.34 0 0 0-.774-4.002 10.35 10.35 0 0 0-2.142-3.276c-.912-.94-1.972-1.674-3.18-2.202a9.6 9.6 0 0 0-3.888-.792 9.6 9.6 0 0 0-3.888.792c-1.208.528-2.268 1.262-3.18 2.202a10.35 10.35 0 0 0-2.142 3.276 10.34 10.34 0 0 0-.774 4.002 10.34 10.34 0 0 0 .774 4.002 10.35 10.35 0 0 0 2.142 3.276c.912.94 1.972 1.674 3.18 2.202a9.6 9.6 0 0 0 3.888.792zm-2.322-4.224c.708.32 1.478.48 2.31.48.848 0 1.624-.16 2.328-.48a5.46 5.46 0 0 0 1.836-1.356c.52-.584.924-1.274 1.212-2.07s.432-1.67.432-2.622-.144-1.826-.432-2.622-.692-1.486-1.212-2.07a5.46 5.46 0 0 0-1.836-1.356c-.704-.32-1.48-.48-2.328-.48-.832 0-1.602.16-2.31.48a5.44 5.44 0 0 0-1.842 1.356c-.52.584-.922 1.274-1.206 2.07s-.426 1.67-.426 2.622.142 1.826.426 2.622.686 1.486 1.206 2.07a5.44 5.44 0 0 0 1.842 1.356z" fill="#333136"/><circle cx="12" cy="12" r="12" transform="matrix(0 -1 -1 0 24 24)" fill="url(#A)"/><defs><radialGradient id="A" cx="0" cy="0" r="1" gradientUnits="userSpaceOnUse" gradientTransform="translate(12 12) scale(12)"><stop stop-color="#e7816b" stop-opacity=".01"/><stop offset=".999" stop-color="#e7816b"/></radialGradient></defs></svg>